<svg xmlns="http://www.w3.org/2000/svg" xmlns:xlink="http://www.w3.org/1999/xlink" width="97" height="20" role="img" aria-label="github: repo" text-rendering="geometricPrecision" shape-rendering="geometricPrecision">
	<title>github: repo</title>
	<linearGradient id="s" x2="0" y2="100%">
		<stop offset="0" stop-color="#bbb" stop-opacity=".1"/>
		<stop offset="1" stop-opacity=".1"/>
	</linearGradient>
	<clipPath id="r">
		<rect width="97" height="20" rx="3" fill="#fff"/>
	</clipPath>
	<g clip-path="url(#r)">
		<rect width="62" height="20" fill="#555"/>
		<rect x="62" width="35" height="20" fill="black"/>
		<rect width="97" height="20" fill="url(#s)"/>
	</g>
	<g fill="#fff" text-anchor="middle" font-family="Verdana,Geneva,DejaVu Sans,sans-serif" font-size="110">
		<svg x="5" y="3" width="14" height="14" fill="#fff" role="img" viewBox="0 0 24 24" xmlns="http://www.w3.org/2000/svg">
			<path d="M12 .297c-6.63 0-12 5.373-12 12 0 5.303 3.438 9.8 8.205 11.385.6.113.82-.258.82-.577 0-.285-.01-1.04-.015-2.04-3.338.724-4.042-1.61-4.042-1.61C4.422 18.07 3.633 17.7 3.633 17.7c-1.087-.744.084-.729.084-.729 1.205.084 1.838 1.236 1.838 1.236 1.07 1.835 2.809 1.305 3.495.998.108-.776.417-1.305.76-1.605-2.665-.3-5.466-1.332-5.466-5.93 0-1.31.465-2.38 1.235-3.22-.135-.303-.54-1.523.105-3.176 0 0 1.005-.322 3.3 1.23.96-.267 1.98-.399 3-.405 1.02.006 2.04.138 3 .405 2.28-1.552 3.285-1.23 3.285-1.23.645 1.653.24 2.873.12 3.176.765.84 1.23 1.91 1.23 3.22 0 4.61-2.805 5.625-5.475 5.92.42.36.81 1.096.81 2.22 0 1.606-.015 2.896-.015 3.286 0 .315.21.69.825.57C20.565 22.092 24 17.592 24 12.297c0-6.627-5.373-12-12-12"/>
		</svg>
		<text aria-hidden="true" x="405" y="150" fill="#010101" fill-opacity=".3" transform="scale(.1)" textLength="350">github</text>
		<text x="405" y="140" transform="scale(.1)" fill="#fff" textLength="350">github</text>
		<text aria-hidden="true" x="785" y="150" fill="#010101" fill-opacity=".3" transform="scale(.1)" textLength="250">repo</text>
		<text x="785" y="140" transform="scale(.1)" fill="#fff" textLength="250">repo</text>
	</g>
</svg>