<svg width="512" height="512" xmlns="http://www.w3.org/2000/svg" xmlns:svg="http://www.w3.org/2000/svg">
 <g>
  <title>Link</title>
  <path d="m476.85,35.151c46.868,46.857 46.868,122.836 0,169.704l-98.879,98.89c-13.312,13.312 -28.965,22.832 -45.641,28.582c-25.364,8.743 -53.068,8.743 -78.432,0c-16.677,-5.75 -32.329,-15.27 -45.641,-28.582c-13.301,-13.312 -22.832,-28.965 -28.582,-45.641l2.104,-2.104c-2.104,2.104 37.087,-37.849 37.087,-37.849l37.137,37.849c20.458,20.469 53.755,20.469 74.224,0l2.104,-2.104l96.786,-96.786c20.458,-20.458 20.458,-53.755 0,-74.224c-20.469,-20.458 -53.766,-20.458 -74.224,0l-96.786,96.786l-39.217,15.948l-39.216,-15.949c5.75,-16.665 15.27,-32.329 28.582,-45.641l98.89,-98.879c46.868,-46.868 122.847,-46.868 169.704,0z" fill="#A3E1FF"/>
  <path d="m258.106,179.671c16.665,5.75 32.318,15.281 45.63,28.593c13.312,13.301 22.843,28.965 28.593,45.63l-2.104,2.104c-20.469,20.469 -53.766,20.469 -74.224,0c-20.469,-20.458 -53.766,-20.458 -74.224,0l-2.104,2.104l-96.786,96.786c-20.469,20.469 -20.469,53.766 0,74.224c20.458,20.469 53.755,20.469 74.224,0l96.786,-96.786c25.364,8.743 53.068,8.743 78.432,0c-5.75,16.677 -15.281,32.329 -28.593,45.641l-98.879,98.89c-46.868,46.857 -122.847,46.857 -169.715,0c-46.857,-46.868 -46.857,-122.847 0,-169.715l98.89,-98.879c13.312,-13.312 28.965,-22.843 45.641,-28.593c25.365,-8.741 53.069,-8.741 78.433,0.001z" fill="#4AAEE2"/>
 </g>
</svg>